# Created by FreeCAD <http://www.freecadweb.org>
v -8.000000 -48.000000 0.000000
v -18.000000 48.000000 -0.000000
v -8.000000 48.000000 -0.000000
v -18.000000 -48.000000 0.000000
v -18.000000 -48.000000 12.000000
v -18.000000 48.000000 12.000000
v -8.000000 48.000000 12.000000
v 18.000000 -48.000000 0.000000
v 3.052907 -7.000000 0.000000
v 18.000000 -7.000000 0.000000
v 1.495260 -6.824495 0.000000
v 0.015721 -6.306782 0.000000
v -1.311522 -5.472820 0.000000
v -2.419914 -4.364429 0.000000
v -3.253875 -3.037186 0.000000
v 3.052907 7.000000 0.000000
v 18.000000 48.000000 -0.000000
v 18.000000 7.000000 -0.000000
v 1.495260 6.824495 0.000000
v 0.015721 6.306782 0.000000
v -1.311522 5.472820 0.000000
v -2.419914 4.364429 0.000000
v -3.253875 3.037186 0.000000
v -3.947093 -0.000000 0.000000
v -3.771588 -1.557647 0.000000
v -3.771588 1.557647 0.000000
v -8.000000 -48.000000 12.000000
v -18.000000 -0.538378 38.987915
v -18.000000 1.222422 43.955994
v -18.000000 1.610799 38.891396
v -18.000000 7.481878 17.618023
v -18.000000 9.036858 19.104734
v -18.000000 10.301386 20.845209
v -18.000000 5.686424 16.432854
v -18.000000 11.234818 22.783503
v -18.000000 -2.670251 38.699135
v -18.000000 -1.222422 43.955994
v -18.000000 3.708204 15.587322
v -18.000000 11.807155 24.857317
v -18.000000 -3.641984 43.605301
v -18.000000 1.610799 15.108603
v -18.000000 -5.986219 42.911163
v -18.000000 -4.716300 38.034332
v -18.000000 12.000000 27.000000
v -18.000000 -8.206645 41.887947
v -18.000000 -6.610764 37.014877
v -18.000000 11.807155 29.142683
v -18.000000 -8.292751 35.673538
v -18.000000 -10.257336 40.556808
v -18.000000 -9.708204 34.053425
v -18.000000 -10.811626 32.206604
v -18.000000 -11.567554 30.192442
v -18.000000 -11.951692 28.075672
v -18.000000 -11.951692 25.924328
v -18.000000 -11.567554 23.807558
v -18.000000 11.234818 31.216497
v -18.000000 -10.811626 21.793396
v -18.000000 -9.708204 19.946577
v -18.000000 -8.292751 18.326462
v -18.000000 -6.610764 16.985121
v -18.000000 -4.716300 15.965667
v -18.000000 -2.670251 15.300865
v -18.000000 -0.538378 15.012083
v -18.000000 10.301386 33.154793
v -18.000000 10.257336 40.556808
v -18.000000 9.036858 34.895264
v -18.000000 7.481878 36.381977
v -18.000000 5.686424 37.567146
v -18.000000 8.206645 41.887947
v -18.000000 5.986219 42.911163
v -18.000000 3.708204 38.412678
v -18.000000 3.641984 43.605301
v -8.000000 10.257336 40.556808
v 18.000000 48.000000 12.000000
v 18.000000 7.000000 12.000000
v 3.052907 7.000000 12.000000
v 1.495260 6.824495 12.000000
v 0.015721 6.306782 12.000000
v -1.311522 5.472820 12.000000
v -2.419914 4.364429 12.000000
v -3.253875 3.037186 12.000000
v -3.771588 1.557647 12.000000
v -3.947093 -0.000000 12.000000
v -3.771588 -1.557647 12.000000
v -3.253875 -3.037186 12.000000
v -2.419914 -4.364429 12.000000
v -1.311522 -5.472820 12.000000
v 0.015721 -6.306782 12.000000
v 1.495260 -6.824495 12.000000
v 3.052907 -7.000000 12.000000
v 18.000000 -7.000000 12.000000
v 18.000000 -48.000000 12.000000
v -8.000000 -10.257336 40.556808
v -8.000000 8.206645 41.887947
v -8.000000 5.986219 42.911163
v -8.000000 3.641984 43.605301
v -8.000000 1.222422 43.955994
v -8.000000 -1.222422 43.955994
v -8.000000 -3.641984 43.605301
v -8.000000 -5.986219 42.911163
v -8.000000 -8.206645 41.887947
v -8.000000 -11.951692 25.924328
v -8.000000 -11.567554 23.807558
v -8.000000 -10.811626 21.793396
v -8.000000 -9.708204 19.946577
v -8.000000 12.000000 27.000000
v -8.000000 11.807155 29.142683
v -8.000000 -8.292751 18.326462
v -8.000000 11.234818 31.216497
v -8.000000 -6.610764 16.985121
v -8.000000 10.301386 33.154793
v -8.000000 -4.716300 15.965667
v -8.000000 9.036858 34.895264
v -8.000000 -2.670251 15.300865
v -8.000000 7.481878 36.381977
v -8.000000 -0.538378 15.012083
v -8.000000 5.686424 37.567146
v -8.000000 1.610799 15.108603
v -8.000000 3.708204 38.412678
v -8.000000 3.708204 15.587322
v -8.000000 1.610799 38.891396
v -8.000000 5.686424 16.432854
v -8.000000 -0.538378 38.987915
v -8.000000 7.481878 17.618023
v -8.000000 -2.670251 38.699135
v -8.000000 9.036858 19.104734
v -8.000000 -4.716300 38.034332
v -8.000000 10.301386 20.845209
v -8.000000 -6.610764 37.014877
v -8.000000 11.234818 22.783503
v -8.000000 -8.292751 35.673538
v -8.000000 11.807155 24.857317
v -8.000000 -9.708204 34.053425
v -8.000000 -10.811626 32.206604
v -8.000000 -11.567554 30.192442
v -8.000000 -11.951692 28.075672
vn 0.000000 -0.000000 -1.000000
vn 0.000000 -0.000000 -1.000000
vn -1.000000 0.000000 0.000000
vn -1.000000 0.000000 0.000000
vn 0.000000 1.000000 -0.000000
vn 0.000000 1.000000 0.000000
vn 0.000000 -0.000000 -1.000000
vn 0.000000 -0.000000 -1.000000
vn -0.000000 -0.000000 -1.000000
vn -0.000000 -0.000000 -1.000000
vn -0.000000 -0.000000 -1.000000
vn -0.000000 -0.000000 -1.000000
vn -0.000000 -0.000000 -1.000000
vn -0.000000 -0.000000 -1.000000
vn 0.000000 -0.000000 -1.000000
vn 0.000000 -0.000000 -1.000000
vn 0.000000 -0.000000 -1.000000
vn 0.000000 -0.000000 -1.000000
vn 0.000000 -0.000000 -1.000000
vn 0.000000 -0.000000 -1.000000
vn -0.000000 -0.000000 -1.000000
vn -0.000000 -0.000000 -1.000000
vn -0.000000 -0.000000 -1.000000
vn 0.000000 -0.000000 -1.000000
vn 0.000000 -0.000000 -1.000000
vn 0.000000 -1.000000 -0.000000
vn 0.000000 -1.000000 0.000000
vn -1.000000 0.000000 0.000000
vn -1.000000 0.000000 0.000000
vn -1.000000 0.000000 0.000000
vn -1.000000 0.000000 0.000000
vn -1.000000 0.000000 0.000000
vn -1.000000 0.000000 0.000000
vn -1.000000 0.000000 0.000000
vn -1.000000 0.000000 0.000000
vn -1.000000 0.000000 0.000000
vn -1.000000 0.000000 0.000000
vn -1.000000 0.000000 0.000000
vn -1.000000 0.000000 0.000000
vn -1.000000 0.000000 0.000000
vn -1.000000 0.000000 0.000000
vn -1.000000 0.000000 0.000000
vn -1.000000 0.000000 0.000000
vn -1.000000 0.000000 0.000000
vn -1.000000 0.000000 0.000000
vn -1.000000 0.000000 0.000000
vn -1.000000 0.000000 0.000000
vn -1.000000 0.000000 0.000000
vn -1.000000 0.000000 0.000000
vn -1.000000 -0.000000 0.000000
vn -1.000000 -0.000000 0.000000
vn -1.000000 -0.000000 0.000000
vn -1.000000 0.000000 0.000000
vn -1.000000 -0.000000 0.000000
vn -1.000000 -0.000000 0.000000
vn -1.000000 -0.000000 0.000000
vn -1.000000 -0.000000 0.000000
vn -1.000000 -0.000000 0.000000
vn -1.000000 -0.000000 0.000000
vn -1.000000 -0.000000 0.000000
vn -1.000000 0.000000 0.000000
vn -1.000000 0.000000 0.000000
vn -1.000000 -0.000000 0.000000
vn -1.000000 0.000000 0.000000
vn -1.000000 0.000000 0.000000
vn -1.000000 0.000000 0.000000
vn -1.000000 0.000000 0.000000
vn -1.000000 0.000000 0.000000
vn -1.000000 0.000000 0.000000
vn -1.000000 0.000000 0.000000
vn -1.000000 0.000000 0.000000
vn -1.000000 0.000000 0.000000
vn -1.000000 0.000000 0.000000
vn -1.000000 0.000000 0.000000
vn 0.000000 0.603373 0.797459
vn -0.000000 0.603373 0.797459
vn 0.000000 1.000000 -0.000000
vn 0.000000 1.000000 0.000000
vn 1.000000 -0.000000 0.000000
vn 1.000000 -0.000000 0.000000
vn 0.000000 -1.000000 0.000000
vn 0.000000 -1.000000 0.000000
vn 0.111965 -0.993712 0.000000
vn 0.111965 -0.993712 0.000000
vn 0.330279 -0.943883 0.000000
vn 0.330279 -0.943883 0.000000
vn 0.532032 -0.846724 0.000000
vn 0.532032 -0.846724 0.000000
vn 0.707107 -0.707107 0.000000
vn 0.707107 -0.707107 0.000000
vn 0.846724 -0.532032 0.000000
vn 0.846724 -0.532032 0.000000
vn 0.943883 -0.330279 0.000000
vn 0.943883 -0.330279 0.000000
vn 0.993712 -0.111965 0.000000
vn 0.993712 -0.111965 0.000000
vn 0.993712 0.111965 -0.000000
vn 0.993712 0.111965 0.000000
vn 0.943883 0.330279 -0.000000
vn 0.943883 0.330279 0.000000
vn 0.846724 0.532032 -0.000000
vn 0.846724 0.532032 0.000000
vn 0.707107 0.707107 -0.000000
vn 0.707107 0.707107 0.000000
vn 0.532032 0.846724 -0.000000
vn 0.532032 0.846724 0.000000
vn 0.330279 0.943883 -0.000000
vn 0.330279 0.943883 0.000000
vn 0.111965 0.993712 -0.000000
vn 0.111965 0.993712 0.000000
vn 0.000000 1.000000 0.000000
vn 0.000000 1.000000 -0.000000
vn 1.000000 -0.000000 0.000000
vn 1.000000 -0.000000 0.000000
vn -0.000000 -1.000000 -0.000000
vn 0.000000 -1.000000 0.000000
vn 0.000000 -0.603373 0.797459
vn 0.000000 -0.603373 0.797459
vn -0.000000 0.544468 0.838782
vn 0.000000 0.544468 0.838782
vn 0.000000 0.418520 0.908208
vn -0.000000 0.418520 0.908208
vn 0.000000 0.283919 0.958848
vn -0.000000 0.283919 0.958848
vn 0.000000 0.143442 0.989659
vn -0.000000 0.143442 0.989659
vn 0.000000 0.000000 1.000000
vn -0.000000 0.000000 1.000000
vn 0.000000 -0.143442 0.989659
vn 0.000000 -0.143442 0.989659
vn 0.000000 -0.283919 0.958848
vn 0.000000 -0.283919 0.958848
vn 0.000000 -0.418520 0.908208
vn 0.000000 -0.418520 0.908208
vn 0.000000 -0.544468 0.838782
vn 0.000000 -0.544468 0.838782
vn -0.000000 0.983930 0.178557
vn -0.000000 0.936235 0.351375
vn 0.000000 0.936235 0.351375
vn 0.000000 0.858449 0.512899
vn -0.000000 0.858449 0.512899
vn 0.000000 -0.995974 -0.089639
vn 0.000000 -0.995974 -0.089639
vn -0.000000 0.753071 0.657939
vn 0.000000 0.753071 0.657939
vn 0.000000 -0.963963 -0.266037
vn 0.000000 -0.963963 -0.266037
vn -0.000000 0.623490 0.781831
vn 0.000000 0.623490 0.781831
vn 0.000000 -0.900969 -0.433883
vn 0.000000 -0.900969 -0.433883
vn -0.000000 0.473869 0.880596
vn 0.000000 0.473869 0.880596
vn 0.000000 -0.809017 -0.587786
vn 0.000000 -0.809017 -0.587786
vn -0.000000 0.309017 0.951057
vn 0.000000 0.309017 0.951057
vn 0.000000 -0.691063 -0.722795
vn 0.000000 -0.691063 -0.722795
vn -0.000000 0.134233 0.990950
vn 0.000000 0.134233 0.990950
vn 0.000000 -0.550897 -0.834573
vn 0.000000 -0.550897 -0.834573
vn 0.000000 -0.044865 0.998993
vn 0.000000 -0.393025 -0.919528
vn 0.000000 -0.044865 0.998993
vn 0.000000 -0.393025 -0.919528
vn 0.000000 -0.222521 0.974928
vn 0.000000 -0.222521 0.974928
vn 0.000000 -0.222520 -0.974928
vn 0.000000 -0.222520 -0.974928
vn 0.000000 -0.393025 0.919528
vn 0.000000 -0.393025 0.919528
vn 0.000000 -0.044865 -0.998993
vn 0.000000 -0.044865 -0.998993
vn 0.000000 -0.550897 0.834573
vn 0.000000 -0.550897 0.834573
vn 0.000000 0.134233 -0.990950
vn 0.000000 0.134233 -0.990950
vn 0.000000 -0.691062 0.722795
vn 0.000000 0.309017 -0.951056
vn 0.000000 -0.691062 0.722795
vn 0.000000 0.309017 -0.951056
vn 0.000000 -0.809017 0.587785
vn 0.000000 -0.809017 0.587785
vn 0.000000 0.473869 -0.880595
vn 0.000000 0.473869 -0.880595
vn 0.000000 -0.900969 0.433884
vn 0.000000 -0.900969 0.433884
vn 0.000000 0.623489 -0.781832
vn 0.000000 0.623489 -0.781832
vn 0.000000 -0.963963 0.266037
vn 0.000000 -0.963963 0.266037
vn 0.000000 0.753071 -0.657939
vn 0.000000 0.753071 -0.657939
vn 0.000000 -0.995974 0.089639
vn 0.000000 -0.995974 0.089639
vn 0.000000 0.858449 -0.512899
vn 0.000000 0.858449 -0.512899
vn 0.000000 0.936235 -0.351375
vn 0.000000 0.936235 -0.351375
vn 0.000000 0.983930 -0.178557
vn 0.000000 0.983930 -0.178557
vn 0.000000 1.000000 0.000000
vn 0.000000 1.000000 0.000000
vn 0.000000 0.983930 0.178557
vn 1.000000 -0.000000 0.000000
vn 1.000000 0.000000 0.000000
vn 1.000000 0.000000 0.000000
vn 1.000000 0.000000 0.000000
vn 1.000000 -0.000000 0.000000
vn 1.000000 0.000000 0.000000
vn 1.000000 -0.000000 0.000000
vn 1.000000 0.000000 0.000000
vn 1.000000 -0.000000 0.000000
vn 1.000000 0.000000 0.000000
vn 1.000000 -0.000000 0.000000
vn 1.000000 0.000000 0.000000
vn 1.000000 -0.000000 0.000000
vn 1.000000 0.000000 0.000000
vn 1.000000 -0.000000 0.000000
vn 1.000000 0.000000 0.000000
vn 1.000000 0.000000 0.000000
vn 1.000000 0.000000 0.000000
vn 1.000000 -0.000000 0.000000
vn 1.000000 0.000000 0.000000
vn 1.000000 0.000000 0.000000
vn 1.000000 0.000000 0.000000
vn 1.000000 0.000000 0.000000
vn 1.000000 -0.000000 0.000000
vn 1.000000 0.000000 0.000000
vn 1.000000 0.000000 0.000000
vn 1.000000 0.000000 0.000000
vn 1.000000 0.000000 0.000000
vn 1.000000 0.000000 0.000000
vn 1.000000 0.000000 0.000000
vn 1.000000 0.000000 0.000000
vn 1.000000 0.000000 0.000000
vn 1.000000 0.000000 0.000000
vn 1.000000 0.000000 0.000000
vn 1.000000 0.000000 0.000000
vn 1.000000 -0.000000 0.000000
vn 1.000000 0.000000 0.000000
vn 1.000000 0.000000 0.000000
vn 1.000000 0.000000 0.000000
vn 1.000000 0.000000 0.000000
vn 1.000000 0.000000 0.000000
vn 1.000000 -0.000000 0.000000
vn 1.000000 0.000000 0.000000
vn 1.000000 0.000000 0.000000
vn 1.000000 0.000000 0.000000
vn 1.000000 0.000000 0.000000
vn 1.000000 0.000000 0.000000
vn 0.000000 0.000000 1.000000
vn -0.000000 0.000000 1.000000
vn 0.000000 0.000000 1.000000
vn 0.000000 0.000000 1.000000
vn 0.000000 0.000000 1.000000
vn 0.000000 0.000000 1.000000
vn 0.000000 0.000000 1.000000
vn -0.000000 0.000000 1.000000
vn 0.000000 0.000000 1.000000
vn 0.000000 0.000000 1.000000
vn 0.000000 0.000000 1.000000
vn 0.000000 0.000000 1.000000
vn 0.000000 0.000000 1.000000
vn 0.000000 0.000000 1.000000
vn 0.000000 0.000000 1.000000
vn 0.000000 0.000000 1.000000
vn 0.000000 0.000000 1.000000
vn 0.000000 0.000000 1.000000
vn 0.000000 0.000000 1.000000
f 1//1 2//1 3//1
f 4//2 2//2 1//2
f 4//3 5//3 2//3
f 2//4 5//4 6//4
f 3//5 6//5 7//5
f 2//6 6//6 3//6
f 8//7 9//7 10//7
f 1//8 9//8 8//8
f 1//9 11//9 9//9
f 1//10 12//10 11//10
f 1//11 13//11 12//11
f 1//12 14//12 13//12
f 1//13 15//13 14//13
f 16//14 17//14 18//14
f 19//15 3//15 16//15
f 20//16 3//16 19//16
f 21//17 3//17 20//17
f 22//18 3//18 21//18
f 23//19 3//19 22//19
f 16//20 3//20 17//20
f 1//21 3//21 24//21
f 1//22 24//22 25//22
f 1//23 25//23 15//23
f 24//24 3//24 26//24
f 26//25 3//25 23//25
f 27//26 4//26 1//26
f 5//27 4//27 27//27
f 28//28 29//28 30//28
f 6//29 31//29 32//29
f 32//30 33//30 6//30
f 6//31 34//31 31//31
f 33//32 35//32 6//32
f 36//33 37//33 28//33
f 28//34 37//34 29//34
f 6//35 38//35 34//35
f 35//36 39//36 6//36
f 36//37 40//37 37//37
f 6//38 41//38 38//38
f 36//39 42//39 40//39
f 43//40 42//40 36//40
f 39//41 44//41 6//41
f 43//42 45//42 42//42
f 46//43 45//43 43//43
f 44//44 47//44 6//44
f 48//45 49//45 46//45
f 50//46 49//46 48//46
f 51//47 49//47 50//47
f 52//48 49//48 51//48
f 46//49 49//49 45//49
f 53//50 5//50 52//50
f 54//51 5//51 53//51
f 55//52 5//52 54//52
f 47//53 56//53 6//53
f 57//54 5//54 55//54
f 58//55 5//55 57//55
f 59//56 5//56 58//56
f 60//57 5//57 59//57
f 61//58 5//58 60//58
f 62//59 5//59 61//59
f 52//60 5//60 49//60
f 6//61 5//61 63//61
f 6//62 63//62 41//62
f 63//63 5//63 62//63
f 64//64 65//64 56//64
f 66//65 65//65 64//65
f 67//66 65//66 66//66
f 56//67 65//67 6//67
f 67//68 68//68 65//68
f 68//69 69//69 65//69
f 68//70 70//70 69//70
f 71//71 70//71 68//71
f 71//72 72//72 70//72
f 30//73 72//73 71//73
f 30//74 29//74 72//74
f 7//75 65//75 73//75
f 6//76 65//76 7//76
f 17//77 3//77 74//77
f 3//78 7//78 74//78
f 18//79 17//79 74//79
f 75//80 18//80 74//80
f 76//81 18//81 75//81
f 16//82 18//82 76//82
f 19//83 16//83 76//83
f 19//84 76//84 77//84
f 20//85 77//85 78//85
f 20//86 19//86 77//86
f 21//87 78//87 79//87
f 21//88 20//88 78//88
f 22//89 79//89 80//89
f 22//90 21//90 79//90
f 23//91 80//91 81//91
f 23//92 22//92 80//92
f 26//93 81//93 82//93
f 26//94 23//94 81//94
f 24//95 82//95 83//95
f 24//96 26//96 82//96
f 25//97 83//97 84//97
f 25//98 24//98 83//98
f 15//99 84//99 85//99
f 15//100 25//100 84//100
f 14//101 85//101 86//101
f 14//102 15//102 85//102
f 13//103 86//103 87//103
f 13//104 14//104 86//104
f 12//105 87//105 88//105
f 12//106 13//106 87//106
f 11//107 88//107 89//107
f 11//108 12//108 88//108
f 9//109 89//109 90//109
f 9//110 11//110 89//110
f 91//111 9//111 90//111
f 10//112 9//112 91//112
f 8//113 10//113 91//113
f 92//114 8//114 91//114
f 92//115 27//115 8//115
f 27//116 1//116 8//116
f 49//117 5//117 27//117
f 49//118 27//118 93//118
f 65//119 69//119 73//119
f 73//120 69//120 94//120
f 94//121 70//121 95//121
f 69//122 70//122 94//122
f 95//123 72//123 96//123
f 70//124 72//124 95//124
f 96//125 29//125 97//125
f 72//126 29//126 96//126
f 97//127 37//127 98//127
f 29//128 37//128 97//128
f 98//129 40//129 99//129
f 37//130 40//130 98//130
f 99//131 42//131 100//131
f 40//132 42//132 99//132
f 100//133 45//133 101//133
f 42//134 45//134 100//134
f 101//135 49//135 93//135
f 45//136 49//136 101//136
f 55//137 102//137 103//137
f 57//138 103//138 104//138
f 57//139 55//139 103//139
f 58//140 57//140 104//140
f 58//141 104//141 105//141
f 47//142 44//142 106//142
f 47//143 106//143 107//143
f 59//144 105//144 108//144
f 59//145 58//145 105//145
f 56//146 107//146 109//146
f 56//147 47//147 107//147
f 60//148 108//148 110//148
f 60//149 59//149 108//149
f 64//150 109//150 111//150
f 64//151 56//151 109//151
f 61//152 110//152 112//152
f 61//153 60//153 110//153
f 66//154 111//154 113//154
f 66//155 64//155 111//155
f 62//156 112//156 114//156
f 62//157 61//157 112//157
f 67//158 113//158 115//158
f 67//159 66//159 113//159
f 63//160 114//160 116//160
f 63//161 62//161 114//161
f 68//162 115//162 117//162
f 68//163 67//163 115//163
f 41//164 116//164 118//164
f 71//165 68//165 117//165
f 41//166 63//166 116//166
f 71//167 117//167 119//167
f 38//168 118//168 120//168
f 38//169 41//169 118//169
f 30//170 71//170 119//170
f 30//171 119//171 121//171
f 34//172 120//172 122//172
f 34//173 38//173 120//173
f 28//174 30//174 121//174
f 28//175 121//175 123//175
f 31//176 122//176 124//176
f 31//177 34//177 122//177
f 36//178 28//178 123//178
f 36//179 123//179 125//179
f 32//180 124//180 126//180
f 43//181 36//181 125//181
f 32//182 31//182 124//182
f 43//183 125//183 127//183
f 33//184 32//184 126//184
f 33//185 126//185 128//185
f 46//186 43//186 127//186
f 46//187 127//187 129//187
f 35//188 33//188 128//188
f 35//189 128//189 130//189
f 48//190 46//190 129//190
f 48//191 129//191 131//191
f 39//192 35//192 130//192
f 39//193 130//193 132//193
f 50//194 48//194 131//194
f 50//195 131//195 133//195
f 44//196 39//196 132//196
f 44//197 132//197 106//197
f 51//198 50//198 133//198
f 51//199 133//199 134//199
f 52//200 51//200 134//200
f 52//201 134//201 135//201
f 53//202 52//202 135//202
f 53//203 135//203 136//203
f 54//204 53//204 136//204
f 54//205 136//205 102//205
f 55//206 54//206 102//206
f 124//207 7//207 126//207
f 97//208 121//208 96//208
f 97//209 123//209 121//209
f 128//210 126//210 7//210
f 122//211 7//211 124//211
f 130//212 128//212 7//212
f 120//213 7//213 122//213
f 132//214 130//214 7//214
f 118//215 7//215 120//215
f 98//216 125//216 123//216
f 98//217 123//217 97//217
f 106//218 132//218 7//218
f 99//219 125//219 98//219
f 107//220 106//220 7//220
f 100//221 125//221 99//221
f 100//222 127//222 125//222
f 101//223 129//223 127//223
f 109//224 107//224 7//224
f 101//225 127//225 100//225
f 93//226 131//226 129//226
f 93//227 133//227 131//227
f 93//228 134//228 133//228
f 93//229 135//229 134//229
f 93//230 129//230 101//230
f 27//231 136//231 135//231
f 27//232 102//232 136//232
f 27//233 103//233 102//233
f 27//234 104//234 103//234
f 27//235 105//235 104//235
f 27//236 108//236 105//236
f 27//237 110//237 108//237
f 27//238 112//238 110//238
f 27//239 114//239 112//239
f 27//240 135//240 93//240
f 27//241 7//241 116//241
f 116//242 7//242 118//242
f 27//243 116//243 114//243
f 73//244 111//244 109//244
f 73//245 113//245 111//245
f 73//246 115//246 113//246
f 73//247 109//247 7//247
f 117//248 115//248 73//248
f 94//249 117//249 73//249
f 95//250 117//250 94//250
f 95//251 119//251 117//251
f 96//252 119//252 95//252
f 96//253 121//253 119//253
f 74//254 76//254 75//254
f 7//255 76//255 74//255
f 7//256 77//256 76//256
f 7//257 78//257 77//257
f 7//258 79//258 78//258
f 7//259 80//259 79//259
f 7//260 81//260 80//260
f 90//261 92//261 91//261
f 85//262 27//262 86//262
f 86//263 27//263 87//263
f 87//264 27//264 88//264
f 88//265 27//265 89//265
f 89//266 27//266 90//266
f 90//267 27//267 92//267
f 7//268 27//268 83//268
f 7//269 83//269 82//269
f 7//270 82//270 81//270
f 83//271 27//271 84//271
f 84//272 27//272 85//272
