# Created by FreeCAD <http://www.freecadweb.org>
v 0.000000 20.000000 55.000000
v 40.000000 20.000000 55.000000
v 0.000000 30.000000 55.000000
v 40.000000 30.000000 55.000000
v 30.000000 20.000000 40.000000
v 29.795300 20.000000 42.012985
v 29.189579 20.000000 43.943558
v 28.207634 20.000000 45.712681
v 26.889669 20.000000 47.247929
v 25.289640 20.000000 48.486443
v 0.000000 20.000000 25.000000
v 13.878941 20.000000 32.092243
v 12.412418 20.000000 33.486275
v 23.473053 20.000000 49.377522
v 21.514278 20.000000 49.884682
v 19.493507 20.000000 49.987164
v 11.256534 20.000000 35.146980
v 40.000000 20.000000 25.000000
v 15.596059 20.000000 31.021955
v 10.458608 20.000000 37.006371
v 17.493475 20.000000 30.319229
v 10.051307 20.000000 38.988316
v 19.493507 20.000000 30.012835
v 10.051307 20.000000 41.011684
v 10.458608 20.000000 42.993629
v 11.256534 20.000000 44.853020
v 12.412418 20.000000 46.513725
v 13.878941 20.000000 47.907757
v 15.596059 20.000000 48.978046
v 21.514278 20.000000 30.115316
v 23.473053 20.000000 30.622478
v 25.289640 20.000000 31.513557
v 26.889669 20.000000 32.752071
v 28.207634 20.000000 34.287319
v 29.189579 20.000000 36.056442
v 17.493475 20.000000 49.680771
v 29.795300 20.000000 37.987015
v 40.000000 0.000000 25.000000
v 0.000000 0.000000 25.000000
v 11.256534 30.000000 35.146980
v 12.412418 30.000000 33.486275
v 13.878941 30.000000 32.092243
v 15.596059 30.000000 31.021955
v 30.000000 30.000000 40.000000
v 29.795300 30.000000 42.012985
v 17.493475 30.000000 30.319229
v 29.189579 30.000000 43.943558
v 19.493507 30.000000 30.012835
v 28.207634 30.000000 45.712681
v 21.514278 30.000000 30.115316
v 26.889669 30.000000 47.247929
v 23.473053 30.000000 30.622478
v 25.289640 30.000000 48.486443
v 25.289640 30.000000 31.513557
v 23.473053 30.000000 49.377522
v 26.889669 30.000000 32.752071
v 21.514278 30.000000 49.884682
v 28.207634 30.000000 34.287319
v 19.493507 30.000000 49.987164
v 29.189579 30.000000 36.056442
v 17.493475 30.000000 49.680771
v 29.795300 30.000000 37.987015
v 15.596059 30.000000 48.978046
v 13.878941 30.000000 47.907757
v 12.412418 30.000000 46.513725
v 11.256534 30.000000 44.853020
v 10.458608 30.000000 42.993629
v 10.051307 30.000000 41.011684
v 10.051307 30.000000 38.988316
v 10.458608 30.000000 37.006371
v 0.000000 30.000000 0.000000
v 70.000000 30.000000 20.000000
v 70.000000 30.000000 0.000000
v 40.000000 30.000000 20.000000
v 70.000000 0.000000 0.000000
v 70.000000 0.000000 20.000000
v 40.000000 0.000000 20.000000
v 0.000000 0.000000 0.000000
vn 0.000000 0.000000 1.000000
vn -0.000000 0.000000 1.000000
vn 0.000000 -1.000000 0.000000
vn 0.000000 -1.000000 0.000000
vn 0.000000 -1.000000 0.000000
vn 0.000000 -1.000000 0.000000
vn 0.000000 -1.000000 0.000000
vn 0.000000 -1.000000 0.000000
vn 0.000000 -1.000000 0.000000
vn 0.000000 -1.000000 0.000000
vn 0.000000 -1.000000 0.000000
vn -0.000000 -1.000000 0.000000
vn 0.000000 -1.000000 0.000000
vn 0.000000 -1.000000 0.000000
vn 0.000000 -1.000000 0.000000
vn -0.000000 -1.000000 0.000000
vn 0.000000 -1.000000 0.000000
vn -0.000000 -1.000000 0.000000
vn 0.000000 -1.000000 0.000000
vn -0.000000 -1.000000 0.000000
vn -0.000000 -1.000000 0.000000
vn -0.000000 -1.000000 0.000000
vn 0.000000 -1.000000 0.000000
vn 0.000000 -1.000000 0.000000
vn 0.000000 -1.000000 0.000000
vn 0.000000 -1.000000 0.000000
vn 0.000000 -1.000000 0.000000
vn 0.000000 -1.000000 0.000000
vn 0.000000 -1.000000 0.000000
vn 0.000000 -1.000000 0.000000
vn 0.000000 -1.000000 0.000000
vn 0.000000 -1.000000 0.000000
vn 0.000000 -1.000000 0.000000
vn 0.000000 -1.000000 0.000000
vn 0.000000 -1.000000 0.000000
vn 0.000000 -1.000000 0.000000
vn 0.000000 -1.000000 0.000000
vn 0.000000 0.000000 1.000000
vn 0.000000 0.000000 1.000000
vn 0.820764 0.000000 0.571268
vn 0.688966 -0.000000 0.724793
vn 0.688966 0.000000 0.724793
vn 0.528964 -0.000000 0.848644
vn 0.528964 0.000000 0.848644
vn -0.994869 0.000000 -0.101168
vn -0.994869 0.000000 -0.101168
vn 0.347306 -0.000000 0.937752
vn 0.347306 0.000000 0.937752
vn -0.954139 0.000000 -0.299363
vn -0.954139 0.000000 -0.299363
vn 0.151428 0.000000 0.988468
vn 0.151428 -0.000000 0.988468
vn -0.874346 0.000000 -0.485303
vn -0.874346 0.000000 -0.485303
vn -0.050649 0.000000 0.998716
vn -0.050649 0.000000 0.998716
vn -0.758759 0.000000 -0.651372
vn -0.758759 0.000000 -0.651372
vn -0.250653 0.000000 0.968077
vn -0.250653 0.000000 0.968077
vn -0.612106 0.000000 -0.790776
vn -0.612106 0.000000 -0.790776
vn -0.440394 0.000000 0.897804
vn -0.440394 0.000000 -0.897804
vn -0.440394 0.000000 0.897804
vn -0.440394 0.000000 -0.897804
vn -0.612106 0.000000 0.790776
vn -0.250652 0.000000 -0.968077
vn -0.612106 0.000000 0.790776
vn -0.250652 0.000000 -0.968077
vn -0.758759 0.000000 0.651372
vn -0.758759 0.000000 0.651372
vn -0.050649 0.000000 -0.998716
vn -0.050649 0.000000 -0.998716
vn -0.874346 0.000000 0.485303
vn -0.874346 0.000000 0.485303
vn 0.151427 0.000000 -0.988468
vn 0.151427 0.000000 -0.988468
vn -0.954139 0.000000 0.299363
vn -0.954139 0.000000 0.299363
vn -0.994869 0.000000 0.101168
vn 0.347305 0.000000 -0.937752
vn 0.347305 0.000000 -0.937752
vn -0.994869 0.000000 0.101168
vn 0.528965 0.000000 -0.848644
vn 0.528965 0.000000 -0.848644
vn 0.688966 0.000000 -0.724793
vn 0.688966 0.000000 -0.724793
vn 0.820764 0.000000 -0.571268
vn 0.820764 0.000000 -0.571268
vn 0.918958 0.000000 -0.394355
vn 0.918958 0.000000 -0.394355
vn 0.979530 0.000000 -0.201299
vn 0.979530 0.000000 -0.201299
vn 1.000000 -0.000000 0.000000
vn 1.000000 0.000000 0.000000
vn 0.979530 -0.000000 0.201299
vn 0.979530 0.000000 0.201299
vn 0.918958 -0.000000 0.394355
vn 0.918958 0.000000 0.394355
vn 0.820764 -0.000000 0.571268
vn 0.000000 1.000000 0.000000
vn 0.000000 1.000000 0.000000
vn 0.000000 1.000000 0.000000
vn 0.000000 1.000000 0.000000
vn 0.000000 1.000000 0.000000
vn 0.000000 1.000000 0.000000
vn 0.000000 1.000000 0.000000
vn 0.000000 1.000000 0.000000
vn 0.000000 1.000000 0.000000
vn 0.000000 1.000000 0.000000
vn 0.000000 1.000000 0.000000
vn 0.000000 1.000000 0.000000
vn 0.000000 1.000000 0.000000
vn 0.000000 1.000000 0.000000
vn 0.000000 1.000000 0.000000
vn 0.000000 1.000000 0.000000
vn 0.000000 1.000000 0.000000
vn 0.000000 1.000000 0.000000
vn 0.000000 1.000000 0.000000
vn 0.000000 1.000000 0.000000
vn 0.000000 1.000000 0.000000
vn 0.000000 1.000000 0.000000
vn 0.000000 1.000000 0.000000
vn 0.000000 1.000000 0.000000
vn 0.000000 1.000000 0.000000
vn 0.000000 1.000000 0.000000
vn 0.000000 1.000000 0.000000
vn 0.000000 1.000000 0.000000
vn 0.000000 1.000000 0.000000
vn 0.000000 1.000000 0.000000
vn 0.000000 1.000000 0.000000
vn 0.000000 1.000000 0.000000
vn 0.000000 1.000000 0.000000
vn 0.000000 1.000000 0.000000
vn 0.000000 1.000000 0.000000
vn 0.000000 1.000000 0.000000
vn 0.000000 1.000000 0.000000
vn 1.000000 0.000000 0.000000
vn 1.000000 0.000000 0.000000
vn 0.000000 0.000000 1.000000
vn 0.000000 0.000000 1.000000
vn 0.000000 0.000000 -1.000000
vn 0.000000 0.000000 -1.000000
vn -1.000000 0.000000 0.000000
vn -1.000000 0.000000 0.000000
vn -1.000000 0.000000 0.000000
vn -1.000000 0.000000 0.000000
vn 0.000000 -1.000000 0.000000
vn 0.000000 -1.000000 0.000000
vn 0.000000 -1.000000 0.000000
vn 0.000000 -1.000000 0.000000
vn 1.000000 0.000000 0.000000
vn 1.000000 0.000000 0.000000
vn 1.000000 -0.000000 0.000000
vn 1.000000 -0.000000 0.000000
f 1//1 2//1 3//1
f 3//2 2//2 4//2
f 5//3 2//3 6//3
f 6//4 2//4 7//4
f 7//5 2//5 8//5
f 8//6 2//6 9//6
f 9//7 2//7 10//7
f 11//8 12//8 13//8
f 10//9 2//9 14//9
f 14//10 2//10 15//10
f 15//11 2//11 16//11
f 13//12 17//12 11//12
f 16//13 2//13 1//13
f 18//14 2//14 5//14
f 11//15 19//15 12//15
f 17//16 20//16 11//16
f 11//17 21//17 19//17
f 20//18 22//18 11//18
f 11//19 23//19 21//19
f 22//20 24//20 11//20
f 25//21 1//21 24//21
f 24//22 1//22 11//22
f 25//23 26//23 1//23
f 26//24 27//24 1//24
f 27//25 28//25 1//25
f 28//26 29//26 1//26
f 23//27 18//27 30//27
f 30//28 18//28 31//28
f 31//29 18//29 32//29
f 32//30 18//30 33//30
f 33//31 18//31 34//31
f 11//32 18//32 23//32
f 18//33 35//33 34//33
f 29//34 36//34 1//34
f 18//35 37//35 35//35
f 36//36 16//36 1//36
f 18//37 5//37 37//37
f 38//38 11//38 39//38
f 18//39 11//39 38//39
f 40//40 13//40 41//40
f 13//41 12//41 41//41
f 41//42 12//42 42//42
f 12//43 19//43 42//43
f 42//44 19//44 43//44
f 5//45 6//45 44//45
f 44//46 6//46 45//46
f 19//47 21//47 43//47
f 43//48 21//48 46//48
f 45//49 7//49 47//49
f 6//50 7//50 45//50
f 46//51 23//51 48//51
f 21//52 23//52 46//52
f 47//53 8//53 49//53
f 7//54 8//54 47//54
f 48//55 30//55 50//55
f 23//56 30//56 48//56
f 49//57 9//57 51//57
f 8//58 9//58 49//58
f 50//59 31//59 52//59
f 30//60 31//60 50//60
f 51//61 10//61 53//61
f 9//62 10//62 51//62
f 52//63 32//63 54//63
f 53//64 14//64 55//64
f 31//65 32//65 52//65
f 10//66 14//66 53//66
f 54//67 33//67 56//67
f 55//68 15//68 57//68
f 32//69 33//69 54//69
f 14//70 15//70 55//70
f 56//71 34//71 58//71
f 33//72 34//72 56//72
f 57//73 16//73 59//73
f 15//74 16//74 57//74
f 58//75 35//75 60//75
f 34//76 35//76 58//76
f 16//77 36//77 59//77
f 59//78 36//78 61//78
f 60//79 37//79 62//79
f 35//80 37//80 60//80
f 62//81 5//81 44//81
f 36//82 29//82 61//82
f 61//83 29//83 63//83
f 37//84 5//84 62//84
f 29//85 28//85 63//85
f 63//86 28//86 64//86
f 28//87 27//87 64//87
f 64//88 27//88 65//88
f 27//89 26//89 65//89
f 65//90 26//90 66//90
f 26//91 25//91 66//91
f 66//92 25//92 67//92
f 25//93 24//93 67//93
f 67//94 24//94 68//94
f 24//95 22//95 68//95
f 68//96 22//96 69//96
f 22//97 20//97 69//97
f 69//98 20//98 70//98
f 20//99 17//99 70//99
f 70//100 17//100 40//100
f 17//101 13//101 40//101
f 42//102 71//102 41//102
f 40//103 41//103 71//103
f 72//104 73//104 74//104
f 43//105 71//105 42//105
f 4//106 44//106 45//106
f 4//107 45//107 47//107
f 4//108 47//108 49//108
f 4//109 49//109 51//109
f 4//110 51//110 53//110
f 70//111 40//111 71//111
f 4//112 53//112 55//112
f 4//113 55//113 57//113
f 4//114 57//114 59//114
f 46//115 71//115 43//115
f 4//116 59//116 3//116
f 4//117 74//117 44//117
f 48//118 71//118 46//118
f 3//119 67//119 68//119
f 3//120 68//120 69//120
f 3//121 69//121 70//121
f 3//122 70//122 71//122
f 66//123 67//123 3//123
f 65//124 66//124 3//124
f 74//125 48//125 50//125
f 74//126 50//126 52//126
f 74//127 52//127 54//127
f 74//128 54//128 56//128
f 74//129 71//129 48//129
f 64//130 65//130 3//130
f 58//131 74//131 56//131
f 63//132 64//132 3//132
f 60//133 74//133 58//133
f 61//134 63//134 3//134
f 62//135 74//135 60//135
f 59//136 61//136 3//136
f 44//137 74//137 62//137
f 73//138 71//138 74//138
f 75//139 73//139 72//139
f 75//140 72//140 76//140
f 76//141 74//141 77//141
f 72//142 74//142 76//142
f 71//143 73//143 75//143
f 71//144 75//144 78//144
f 11//145 1//145 3//145
f 71//146 11//146 3//146
f 78//147 39//147 11//147
f 78//148 11//148 71//148
f 77//149 75//149 76//149
f 39//150 77//150 38//150
f 78//151 77//151 39//151
f 78//152 75//152 77//152
f 77//153 74//153 18//153
f 4//154 18//154 74//154
f 38//155 77//155 18//155
f 2//156 18//156 4//156
